HIERARCHY
ROOT mixamorig:Hips
{
  OFFSET 0 96.8 0
  CHANNELS 6 Xposition Yposition Zposition Zrotation Xrotation Yrotation
  JOINT mixamorig:Spine
  {
    OFFSET 0 12.3689 -3.99218
    CHANNELS 6 Xposition Yposition Zposition Zrotation Xrotation Yrotation
    JOINT mixamorig:Spine1
    {
      OFFSET 0 14.0303 0
      CHANNELS 6 Xposition Yposition Zposition Zrotation Xrotation Yrotation
      JOINT mixamorig:Spine2
      {
        OFFSET 0 5.60109 0
        CHANNELS 6 Xposition Yposition Zposition Zrotation Xrotation Yrotation
        JOINT mixamorig:Neck
        {
          OFFSET 0 23.8357 -5.66956
          CHANNELS 6 Xposition Yposition Zposition Zrotation Xrotation Yrotation
          JOINT mixamorig:Head
          {
            OFFSET 0 9.08726 0
            CHANNELS 6 Xposition Yposition Zposition Zrotation Xrotation Yrotation
            End Site
            {
              OFFSET 0 19.5091 9.42096
            }
          }
        }
        JOINT mixamorig:RightShoulder
        {
          OFFSET -6.92539 12.7236 -3.42068
          CHANNELS 6 Xposition Yposition Zposition Zrotation Xrotation Yrotation
          JOINT mixamorig:RightArm
          {
            OFFSET 0 11.9164 0
            CHANNELS 6 Xposition Yposition Zposition Zrotation Xrotation Yrotation
            JOINT mixamorig:RightForeArm
            {
              OFFSET -1.03322e-05 25.7 1.48965e-05
              CHANNELS 6 Xposition Yposition Zposition Zrotation Xrotation Yrotation
              JOINT mixamorig:RightHand
              {
                OFFSET -1.0694e-05 26.6 1.54182e-05
                CHANNELS 6 Xposition Yposition Zposition Zrotation Xrotation Yrotation
                JOINT mixamorig:RightHandThumb1
                {
                  OFFSET 2.51819 2.31438 1.47793
                  CHANNELS 6 Xposition Yposition Zposition Zrotation Xrotation Yrotation
                  JOINT mixamorig:RightHandThumb2
                  {
                    OFFSET 0 3.93334 0
                    CHANNELS 6 Xposition Yposition Zposition Zrotation Xrotation Yrotation
                    JOINT mixamorig:RightHandThumb3
                    {
                      OFFSET 0 3.20778 0
                      CHANNELS 6 Xposition Yposition Zposition Zrotation Xrotation Yrotation
                      End Site
                      {
                        OFFSET 0 2.41783 0
                      }
                    }
                  }
                }
                JOINT mixamorig:RightHandIndex1
                {
                  OFFSET 0 8.70165 0
                  CHANNELS 6 Xposition Yposition Zposition Zrotation Xrotation Yrotation
                  JOINT mixamorig:RightHandIndex2
                  {
                    OFFSET 0 3.42558 0
                    CHANNELS 6 Xposition Yposition Zposition Zrotation Xrotation Yrotation
                    JOINT mixamorig:RightHandIndex3
                    {
                      OFFSET 0 2.63863 0
                      CHANNELS 6 Xposition Yposition Zposition Zrotation Xrotation Yrotation
                      End Site
                      {
                        OFFSET 0 2.56659 0
                      }
                    }
                  }
                }
                JOINT mixamorig:RightHandMiddle1
                {
                  OFFSET -2.22417e-05 8.95076 3.74234e-05
                  CHANNELS 6 Xposition Yposition Zposition Zrotation Xrotation Yrotation
                  JOINT mixamorig:RightHandMiddle2
                  {
                    OFFSET 0 3.4742 0
                    CHANNELS 6 Xposition Yposition Zposition Zrotation Xrotation Yrotation
                    JOINT mixamorig:RightHandMiddle3
                    {
                      OFFSET 0 2.76997 0
                      CHANNELS 6 Xposition Yposition Zposition Zrotation Xrotation Yrotation
                      End Site
                      {
                        OFFSET 0 2.7668 0
                      }
                    }
                  }
                }
                JOINT mixamorig:RightHandRing1
                {
                  OFFSET -1.75131 8.54802 0.0404412
                  CHANNELS 6 Xposition Yposition Zposition Zrotation Xrotation Yrotation
                  JOINT mixamorig:RightHandRing2
                  {
                    OFFSET 0 3.17304 0
                    CHANNELS 6 Xposition Yposition Zposition Zrotation Xrotation Yrotation
                    JOINT mixamorig:RightHandRing3
                    {
                      OFFSET 0 2.71333 0
                      CHANNELS 6 Xposition Yposition Zposition Zrotation Xrotation Yrotation
                      End Site
                      {
                        OFFSET 0 2.47778 0
                      }
                    }
                  }
                }
                JOINT mixamorig:RightHandPinky1
                {
                  OFFSET -3.57399 7.58378 0.457001
                  CHANNELS 6 Xposition Yposition Zposition Zrotation Xrotation Yrotation
                  JOINT mixamorig:RightHandPinky2
                  {
                    OFFSET 0 3.3803 0
                    CHANNELS 6 Xposition Yposition Zposition Zrotation Xrotation Yrotation
                    JOINT mixamorig:RightHandPinky3
                    {
                      OFFSET 0 1.97184 0
                      CHANNELS 6 Xposition Yposition Zposition Zrotation Xrotation Yrotation
                      End Site
                      {
                        OFFSET 0 1.98666 0
                      }
                    }
                  }
                }
              }
            }
          }
        }
        JOINT mixamorig:LeftShoulder
        {
          OFFSET 6.92539 12.7236 -3.42068
          CHANNELS 6 Xposition Yposition Zposition Zrotation Xrotation Yrotation
          JOINT mixamorig:LeftArm
          {
            OFFSET 0 11.9164 0
            CHANNELS 6 Xposition Yposition Zposition Zrotation Xrotation Yrotation
            JOINT mixamorig:LeftForeArm
            {
              OFFSET 0 25.7 0
              CHANNELS 6 Xposition Yposition Zposition Zrotation Xrotation Yrotation
              JOINT mixamorig:LeftHand
              {
                OFFSET 0 26.6 0
                CHANNELS 6 Xposition Yposition Zposition Zrotation Xrotation Yrotation
                JOINT mixamorig:LeftHandThumb1
                {
                  OFFSET -2.51807 2.31564 1.48
                  CHANNELS 6 Xposition Yposition Zposition Zrotation Xrotation Yrotation
                  JOINT mixamorig:LeftHandThumb2
                  {
                    OFFSET 0 3.93157 0
                    CHANNELS 6 Xposition Yposition Zposition Zrotation Xrotation Yrotation
                    JOINT mixamorig:LeftHandThumb3
                    {
                      OFFSET 0 3.20977 0
                      CHANNELS 6 Xposition Yposition Zposition Zrotation Xrotation Yrotation
                      End Site
                      {
                        OFFSET 0 2.4231 0
                      }
                    }
                  }
                }
                JOINT mixamorig:LeftHandIndex1
                {
                  OFFSET 0 8.70165 0
                  CHANNELS 6 Xposition Yposition Zposition Zrotation Xrotation Yrotation
                  JOINT mixamorig:LeftHandIndex2
                  {
                    OFFSET 0 3.42522 0
                    CHANNELS 6 Xposition Yposition Zposition Zrotation Xrotation Yrotation
                    JOINT mixamorig:LeftHandIndex3
                    {
                      OFFSET 0 2.63834 0
                      CHANNELS 6 Xposition Yposition Zposition Zrotation Xrotation Yrotation
                      End Site
                      {
                        OFFSET 0 2.56879 0
                      }
                    }
                  }
                }
                JOINT mixamorig:LeftHandMiddle1
                {
                  OFFSET -3.43705e-05 8.9516 -3.05546e-05
                  CHANNELS 6 Xposition Yposition Zposition Zrotation Xrotation Yrotation
                  JOINT mixamorig:LeftHandMiddle2
                  {
                    OFFSET 0 3.4742 0
                    CHANNELS 6 Xposition Yposition Zposition Zrotation Xrotation Yrotation
                    JOINT mixamorig:LeftHandMiddle3
                    {
                      OFFSET 0 2.76997 0
                      CHANNELS 6 Xposition Yposition Zposition Zrotation Xrotation Yrotation
                      End Site
                      {
                        OFFSET 0 2.77266 0
                      }
                    }
                  }
                }
                JOINT mixamorig:LeftHandRing1
                {
                  OFFSET 1.75126 8.5489 0.0404023
                  CHANNELS 6 Xposition Yposition Zposition Zrotation Xrotation Yrotation
                  JOINT mixamorig:LeftHandRing2
                  {
                    OFFSET 0 2.95776 0
                    CHANNELS 6 Xposition Yposition Zposition Zrotation Xrotation Yrotation
                    JOINT mixamorig:LeftHandRing3
                    {
                      OFFSET 0 2.76997 0
                      CHANNELS 6 Xposition Yposition Zposition Zrotation Xrotation Yrotation
                      End Site
                      {
                        OFFSET -2.1854e-05 2.48294 0
                      }
                    }
                  }
                }
                JOINT mixamorig:LeftHandPinky1
                {
                  OFFSET 3.57398 7.58481 0.457164
                  CHANNELS 6 Xposition Yposition Zposition Zrotation Xrotation Yrotation
                  JOINT mixamorig:LeftHandPinky2
                  {
                    OFFSET 0 3.3803 0
                    CHANNELS 6 Xposition Yposition Zposition Zrotation Xrotation Yrotation
                    JOINT mixamorig:LeftHandPinky3
                    {
                      OFFSET 0 1.97184 0
                      CHANNELS 6 Xposition Yposition Zposition Zrotation Xrotation Yrotation
                      End Site
                      {
                        OFFSET 0 1.99582 0
                      }
                    }
                  }
                }
              }
            }
          }
        }
      }
    }
  }
  JOINT mixamorig:RightUpLeg
  {
    OFFSET -8.5 -8.19964 0.08092
    CHANNELS 6 Xposition Yposition Zposition Zrotation Xrotation Yrotation
    JOINT mixamorig:RightLeg
    {
      OFFSET 0 42.9009 0
      CHANNELS 6 Xposition Yposition Zposition Zrotation Xrotation Yrotation
      JOINT mixamorig:RightFoot
      {
        OFFSET 0 38.0864 0
        CHANNELS 6 Xposition Yposition Zposition Zrotation Xrotation Yrotation
        JOINT mixamorig:RightToeBase
        {
          OFFSET 0 14.087 0
          CHANNELS 6 Xposition Yposition Zposition Zrotation Xrotation Yrotation
          End Site
          {
            OFFSET 0 9.45955 0
          }
        }
      }
    }
  }
  JOINT mixamorig:LeftUpLeg
  {
    OFFSET 8.5 -8.19964 0.08092
    CHANNELS 6 Xposition Yposition Zposition Zrotation Xrotation Yrotation
    JOINT mixamorig:LeftLeg
    {
      OFFSET 0 42.9009 0
      CHANNELS 6 Xposition Yposition Zposition Zrotation Xrotation Yrotation
      JOINT mixamorig:LeftFoot
      {
        OFFSET 0 38.0864 0
        CHANNELS 6 Xposition Yposition Zposition Zrotation Xrotation Yrotation
        JOINT mixamorig:LeftToeBase
        {
          OFFSET 0 14.087 0
          CHANNELS 6 Xposition Yposition Zposition Zrotation Xrotation Yrotation
          End Site
          {
            OFFSET 0 9.45957 0
          }
        }
      }
    }
  }
}
MOTION
Frames:	4
Frame Time:	0.0333333
-10.4326 96.4227 1.7737 1.34563 10.3981 2.35375 8.88178e-16 12.3689 -3.99218 1.91301 9.33355 1.16827 1.77636e-15 14.0303 -1.42109e-14 2.45612 -9.15231 1.78594 2.66454e-15 5.60109 -3.55271e-15 1.70313 0.702441 1.02429 -1.82323e-06 23.8357 -5.66956 3.86186e-06 29.2987 -9.90584e-06 0 9.08727 0 -5.56597e-15 2.22639e-14 -5.96354e-15 -6.92539 12.7236 -3.42068 73.4658 -4.67807 -88.7708 -3.55271e-15 11.9164 0 -91.1758 65.2903 37.976 -1.03322e-05 25.7 1.48965e-05 -20.5182 -6.01114 -21.779 -1.0694e-05 26.6 1.54182e-05 -28.0877 -68.618 -47.9494 2.51819 2.31438 1.47793 -30.9004 26.556 14.9798 -1.42109e-14 3.93334 -1.42109e-14 1.06543 -0.266601 -0.131651 -2.13163e-14 3.20778 1.42109e-14 0.7928 -0.191401 -0.091243 -3.49832e-06 8.70165 5.04374e-06 -0.0188237 -6.94349e-05 7.70291e-16 -1.42109e-14 3.42558 -1.42109e-14 0.0292947 1.59028e-15 3.00662e-15 -3.19744e-13 2.63863 -8.2332e-10 -0.0100751 -3.18055e-15 2.5842e-15 -2.22417e-05 8.95076 3.74234e-05 -0.0575027 -0.000112091 -3.90115e-15 -7.10543e-15 3.4742 -2.84217e-14 0.0973881 -3.18055e-15 -1.68967e-15 -2.41585e-13 2.76997 -1.44708e-08 -0.0368804 1.59028e-15 -1.93815e-15 -1.75131 8.54802 0.0404412 0.0178567 7.9792e-06 -1.19271e-15 -7.10543e-15 3.17304 -4.26326e-14 -0.0253838 -1.59028e-15 2.70844e-15 2.4869e-13 2.71333 7.70171e-10 -0.0129265 0 2.48481e-17 -3.57399 7.58378 0.457001 0.0596292 0.000535225 -6.70898e-16 -7.10543e-15 3.3803 -1.42109e-14 0.096971 0 5.46658e-16 -4.9738e-14 1.97184 -1.98723e-08 -0.0569265 0 4.96962e-17 6.92539 12.7236 -3.42068 -75.9605 -5.67465 89.2971 0 11.9164 2.84217e-14 136.367 69.675 -80.7535 0 25.7 0 67.1798 -38.2746 21.0834 -2.00231e-11 26.6 0 5.89677 -26.0122 -23.3621 -2.51807 2.31564 1.48 30.7775 26.5578 -14.9111 -1.42109e-14 3.93157 0 -0.940956 -0.237838 0.117539 0 3.20977 4.9738e-14 -0.695804 -0.175996 0.084333 -6.5512e-12 8.70165 0 -0.0050508 7.6384e-05 -7.7526e-15 0 3.42522 -1.42109e-14 0.0120434 3.90438e-05 3.08116e-15 -6.53699e-13 2.63834 2.13163e-14 -0.00759159 3.83596e-05 -2.78299e-15 -3.43705e-05 8.9516 -3.05546e-05 -0.00362641 4.68076e-05 -0 -1.42109e-14 3.4742 0 0.0024289 -1.87453e-05 3.77691e-15 -2.70006e-12 2.76997 -1.42109e-14 0.00237084 -4.89982e-05 1.98785e-15 1.75126 8.5489 0.0404023 0.000723448 7.16082e-05 -3.37934e-15 1.42109e-14 2.95776 -7.10543e-15 -7.95139e-16 -1.59028e-15 -9.93923e-17 2.48198e-06 2.76997 4.89192e-07 -1.59028e-15 -1.59028e-15 -1.78906e-15 3.57398 7.58481 0.457164 0.234317 -0.000570151 2.33218e-06 1.42109e-14 3.3803 2.13163e-14 -0.0241399 7.20261e-05 5.36719e-15 2.41585e-13 1.97184 3.55271e-14 -0.00768704 1.21015e-05 5.1684e-15 -8.5 -8.19964 0.08092 179.736 15.6241 0.386319 7.10543e-15 42.9009 0 0.0313045 -13.5194 0.388231 -1.42109e-14 38.0864 -8.88178e-16 10.9282 67.2631 -10.1622 1.77636e-15 14.087 8.88178e-16 -1.55001e-05 39.1744 5.51545e-06 8.5 -8.19964 0.08092 178.929 19.3028 1.5459 7.16094e-15 42.9009 0 -0.185407 -17.1262 -1.26315 -5.55112e-17 38.0864 2.66454e-15 -11.298 67.5107 10.2924 -8.88178e-16 14.087 -3.55271e-15 -1.59485e-05 39.1744 5.46156e-06 
-10.3585 96.393 1.8131 1.28108 10.4924 2.35685 0 12.3689 -3.99218 1.92206 9.3397 1.1626 -4.44089e-16 14.0303 0 2.4658 -9.14507 1.78111 0 5.60109 7.10543e-15 1.71013 0.70757 1.01989 -1.82323e-06 23.8357 -5.66956 3.86186e-06 29.2987 -9.90584e-06 8.88178e-16 9.08727 0 -8.34896e-15 6.36111e-15 -7.95139e-15 -6.92539 12.7236 -3.42068 73.4494 -4.67614 -88.7696 0 11.9164 2.84217e-14 -90.8723 65.242 37.7543 -1.03322e-05 25.7 1.48965e-05 -20.5521 -5.89386 -21.9976 -1.0694e-05 26.6 1.54182e-05 -27.8021 -68.8268 -47.7713 2.51819 2.31438 1.47793 -30.9004 26.556 14.9798 -1.42109e-14 3.93334 0 1.06543 -0.266601 -0.131651 -2.13163e-14 3.20778 2.84217e-14 0.7928 -0.191401 -0.091243 -3.49832e-06 8.70165 5.04374e-06 -0.0188237 -6.94349e-05 -4.72114e-16 -7.10543e-15 3.42558 -2.84217e-14 0.0292947 0 4.99446e-15 -3.12639e-13 2.63863 -8.23349e-10 -0.0100751 0 -2.83268e-15 -2.22417e-05 8.95076 3.74234e-05 -0.0575027 -0.000112091 2.73329e-15 -1.42109e-14 3.4742 -2.84217e-14 0.0973881 3.18055e-15 6.95746e-16 -2.41585e-13 2.76997 -1.44708e-08 -0.0368804 -1.59028e-15 7.45443e-17 -1.75131 8.54802 0.0404412 0.0178567 7.9792e-06 2.48481e-17 0 3.17304 -1.42109e-14 -0.0253838 4.77083e-15 1.63997e-15 2.41585e-13 2.71333 7.70171e-10 -0.0129265 -3.18055e-15 1.71452e-15 -3.57399 7.58378 0.457001 0.0596292 0.000535225 5.46658e-16 -1.42109e-14 3.3803 -2.84217e-14 0.096971 -3.18055e-15 1.09332e-15 -5.68434e-14 1.97184 -1.98723e-08 -0.0569265 0 3.10601e-15 6.92539 12.7236 -3.42068 -75.9586 -5.68125 89.3003 -3.55271e-15 11.9164 0 136.278 69.6656 -80.7798 0 25.7 3.55271e-15 67.512 -38.1447 21.3925 -2.00373e-11 26.6 0 5.89162 -26.0194 -23.2303 -2.51807 2.31564 1.48 30.7775 26.5578 -14.9111 0 3.93157 1.42109e-14 -0.940956 -0.237838 0.117539 0 3.20977 5.68434e-14 -0.695804 -0.175996 0.084333 -6.53699e-12 8.70165 7.10543e-15 -0.0050508 7.6384e-05 -6.75868e-15 0 3.42522 0 0.0120434 3.90438e-05 5.06901e-15 -6.53699e-13 2.63834 2.13163e-14 -0.00759159 3.83596e-05 -0 -3.43705e-05 8.9516 -3.05546e-05 -0.00362641 4.68076e-05 1.59028e-15 0 3.4742 0 0.0024289 -1.87453e-05 3.67752e-15 -2.70006e-12 2.76997 -2.13163e-14 0.00237084 -4.89982e-05 1.68967e-15 1.75126 8.5489 0.0404023 0.000723448 7.16082e-05 -3.08116e-15 0 2.95776 -7.10543e-15 -7.95139e-16 1.59028e-15 -3.67752e-15 2.48198e-06 2.76997 4.89192e-07 1.59028e-15 1.59028e-15 -0 3.57398 7.58481 0.457164 0.234317 -0.000570151 2.33218e-06 1.42109e-14 3.3803 2.13163e-14 -0.0241399 7.20261e-05 -6.36111e-15 2.13163e-13 1.97184 2.84217e-14 -0.00768704 1.21015e-05 9.14409e-15 -8.5 -8.19964 0.08092 179.754 15.6776 0.289626 7.10543e-15 42.9009 1.77636e-15 0.0363438 -13.4884 0.432233 -7.10543e-15 38.0864 -8.88178e-16 10.9712 67.3494 -10.208 3.55271e-15 14.087 1.77636e-15 -1.55001e-05 39.1744 5.51545e-06 8.5 -8.19964 0.08092 178.945 19.3449 1.55197 7.10543e-15 42.9009 0 -0.19149 -17.1021 -1.30668 -5.55112e-17 38.0864 1.11022e-15 -11.3139 67.5452 10.3102 -8.88178e-16 14.087 -3.55271e-15 -1.59485e-05 39.1744 5.46156e-06 
-10.2991 96.3577 1.85588 1.20524 10.5946 2.28917 8.88178e-16 12.3689 -3.99218 1.93101 9.32169 1.14003 -4.44089e-16 14.0303 0 2.47279 -9.16618 1.75649 2.22045e-15 5.60109 -3.55271e-15 1.71543 0.692568 1.00149 -1.82323e-06 23.8357 -5.66956 3.86186e-06 29.2987 -9.90584e-06 3.55271e-15 9.08727 0 -5.96354e-15 0 -7.55382e-15 -6.92539 12.7236 -3.42068 73.4234 -4.64242 -88.7528 -3.55271e-15 11.9164 0 -90.6321 65.0797 37.5684 -1.03322e-05 25.7 1.48965e-05 -20.4416 -5.57736 -22.2606 -1.0694e-05 26.6 1.54182e-05 -27.3323 -68.9449 -47.2471 2.51819 2.31438 1.47793 -30.9004 26.556 14.9798 -1.42109e-14 3.93334 1.42109e-14 1.06543 -0.266601 -0.131651 -2.13163e-14 3.20778 1.42109e-14 0.7928 -0.191401 -0.091243 -3.49832e-06 8.70165 5.04374e-06 -0.0188237 -6.94349e-05 3.08116e-15 -7.10543e-15 3.42558 0 0.0292947 1.59028e-15 3.47873e-16 -3.2685e-13 2.63863 -8.23349e-10 -0.0100751 0 -1.98785e-16 -2.22417e-05 8.95076 3.74234e-05 -0.0575027 -0.000112091 -3.97569e-16 -1.42109e-14 3.4742 -2.84217e-14 0.0973881 1.59028e-15 -1.83876e-15 -2.34479e-13 2.76997 -1.44708e-08 -0.0368804 -1.59028e-15 -2.5345e-15 -1.75131 8.54802 0.0404412 0.0178567 7.9792e-06 1.31695e-15 0 3.17304 -4.26326e-14 -0.0253838 1.59028e-15 2.98177e-16 2.34479e-13 2.71333 7.70157e-10 -0.0129265 3.18055e-15 3.37934e-15 -3.57399 7.58378 0.457001 0.0596292 0.000535225 1.16786e-15 -7.10543e-15 3.3803 -2.84217e-14 0.096971 1.59028e-15 2.28602e-15 -5.68434e-14 1.97184 -1.98723e-08 -0.0569265 0 -1.46604e-15 6.92539 12.7236 -3.42068 -75.97 -5.72098 89.3199 0 11.9164 -2.84217e-14 136.138 69.7419 -80.8884 1.77636e-15 25.7 0 67.9155 -37.9364 21.7409 -2.00231e-11 26.6 1.42109e-14 5.84168 -26.0067 -23.0731 -2.51807 2.31564 1.48 30.7775 26.5578 -14.9111 0 3.93157 7.10543e-15 -0.940956 -0.237838 0.117539 -2.84217e-14 3.20977 5.68434e-14 -0.695804 -0.175996 0.084333 -6.5512e-12 8.70165 0 -0.0050508 7.6384e-05 -2.5842e-15 0 3.42522 -7.10543e-15 0.0120434 3.90438e-05 2.18663e-15 -6.6791e-13 2.63834 2.84217e-14 -0.00759159 3.83596e-05 -7.25564e-15 -3.43705e-05 8.9516 -3.05546e-05 -0.00362641 4.68076e-05 1.88845e-15 1.42109e-14 3.4742 0 0.0024289 -1.87453e-05 -7.95139e-16 -2.68585e-12 2.76997 -2.13163e-14 0.00237084 -4.89982e-05 7.15625e-15 1.75126 8.5489 0.0404023 0.000723448 7.16082e-05 -1.88845e-15 -1.42109e-14 2.95776 -7.10543e-15 7.95139e-16 1.59028e-15 -1.59028e-15 2.48198e-06 2.76997 4.89192e-07 2.38542e-15 6.36111e-15 -5.46658e-15 3.57398 7.58481 0.457164 0.234317 -0.000570151 2.33218e-06 0 3.3803 2.13163e-14 -0.0241399 7.20261e-05 -1.78906e-15 2.27374e-13 1.97184 2.13163e-14 -0.00768704 1.21015e-05 2.18663e-15 -8.5 -8.19964 0.08092 179.826 15.7452 0.165005 7.10543e-15 42.9009 0 0.046066 -13.4532 0.516919 -1.06581e-14 38.0864 -8.88178e-16 10.9968 67.4335 -10.2476 3.55271e-15 14.087 0 -1.55001e-05 39.1744 5.51545e-06 8.5 -8.19964 0.08092 179.018 19.3774 1.54408 7.10543e-15 42.9009 0 -0.203513 -17.068 -1.38585 -2.22045e-16 38.0864 4.44089e-16 -11.3676 67.6027 10.3495 -8.88178e-16 14.087 -8.88178e-16 -1.59485e-05 39.1744 5.46156e-06 
-10.2397 96.3436 1.79805 1.06849 10.6664 2.13253 -8.88178e-16 12.3689 -3.99218 1.93852 9.29435 1.03337 -4.44089e-16 14.0303 -7.10543e-15 2.46408 -9.19886 1.63229 1.33227e-15 5.60109 0 1.71157 0.66986 0.913509 -1.82323e-06 23.8357 -5.66956 3.86186e-06 29.2987 -9.90584e-06 8.88178e-16 9.08727 0 -5.96354e-15 -3.18055e-15 -7.15625e-15 -6.92539 12.7236 -3.42068 73.4199 -4.5996 -88.7318 -3.55271e-15 11.9164 5.68434e-14 -90.6689 64.9441 37.4296 -1.03322e-05 25.7 1.48965e-05 -20.5453 -5.23747 -22.1799 -1.0694e-05 26.6 1.54182e-05 -27.2872 -68.6735 -47.4997 2.51819 2.31438 1.47793 -30.9004 26.556 14.9798 -7.10543e-15 3.93334 -1.42109e-14 1.06543 -0.266601 -0.131651 -1.42109e-14 3.20778 1.42109e-14 0.7928 -0.191401 -0.091243 -3.49832e-06 8.70165 5.04374e-06 -0.0188237 -6.94349e-05 -1.59028e-15 -1.42109e-14 3.42558 0 0.0292947 -3.18055e-15 8.69683e-16 -3.12639e-13 2.63863 -8.23349e-10 -0.0100751 0 1.54058e-15 -2.22417e-05 8.95076 3.74234e-05 -0.0575027 -0.000112091 -5.46658e-16 0 3.4742 -4.26326e-14 0.0973881 -1.59028e-15 -2.41026e-15 -2.34479e-13 2.76997 -1.44708e-08 -0.0368804 -3.18055e-15 -9.93923e-17 -1.75131 8.54802 0.0404412 0.0178567 7.9792e-06 -1.59028e-15 0 3.17304 -1.42109e-14 -0.0253838 -3.18055e-15 -2.48481e-16 2.41585e-13 2.71333 7.70157e-10 -0.0129265 -1.59028e-15 1.39149e-15 -3.57399 7.58378 0.457001 0.0596292 0.000535225 -3.72721e-16 -1.42109e-14 3.3803 -2.84217e-14 0.096971 -1.59028e-15 1.21756e-15 -4.9738e-14 1.97184 -1.98723e-08 -0.0569265 1.59028e-15 -7.95139e-16 6.92539 12.7236 -3.42068 -76.0011 -5.82905 89.3732 0 11.9164 -2.84217e-14 135.769 70.0027 -81.0821 0 25.7 -3.55271e-15 68.5227 -37.6702 22.2179 -2.00373e-11 26.6 -1.42109e-14 5.7891 -25.9455 -22.8845 -2.51807 2.31564 1.48 30.7775 26.5578 -14.9111 -1.42109e-14 3.93157 7.10543e-15 -0.940956 -0.237838 0.117539 -1.42109e-14 3.20977 4.9738e-14 -0.695804 -0.175996 0.084333 -6.56541e-12 8.70165 7.10543e-15 -0.0050508 7.6384e-05 -9.93923e-15 0 3.42522 -7.10543e-15 0.0120434 3.90438e-05 4.96962e-15 -6.53699e-13 2.63834 2.84217e-14 -0.00759159 3.83596e-05 -9.93923e-16 -3.43705e-05 8.9516 -3.05546e-05 -0.00362641 4.68076e-05 2.98177e-15 0 3.4742 -7.10543e-15 0.0024289 -1.87453e-05 5.1684e-15 -2.68585e-12 2.76997 -2.84217e-14 0.00237084 -4.89982e-05 5.56597e-15 1.75126 8.5489 0.0404023 0.000723448 7.16082e-05 -5.96354e-15 0 2.95776 -7.10543e-15 0 0 -8.34896e-15 2.48198e-06 2.76997 4.89192e-07 2.38542e-15 0 -7.95139e-16 3.57398 7.58481 0.457164 0.234317 -0.000570151 2.33218e-06 0 3.3803 2.13163e-14 -0.0241399 7.20261e-05 -9.14409e-15 2.27374e-13 1.97184 3.55271e-14 -0.00768704 1.21015e-05 -6.75868e-15 -8.5 -8.19964 0.08092 179.971 15.8641 0.0594768 7.10543e-15 42.9009 0 0.042382 -13.4213 0.487104 -1.06581e-14 38.0864 8.88178e-16 10.9983 67.4386 -10.2507 0 14.087 0 -1.55001e-05 39.1744 5.51545e-06 8.5 -8.19964 0.08092 179.174 19.4855 1.53091 6.85563e-15 42.9009 0 -0.23405 -17.067 -1.58654 -5.55112e-17 38.0864 1.77636e-15 -11.3702 67.5994 10.346 -7.77156e-16 14.087 -2.66454e-15 -1.59485e-05 39.1744 5.46156e-06 
